<svg xmlns="http://www.w3.org/2000/svg" version="1.1" xmlns:xlink="http://www.w3.org/1999/xlink" width="1500" height="1500" viewBox="0 0 1500 1500"><rect width="1500" height="1500" x="0" y="0" id="background" stroke="transparent" fill="#001f3f"></rect><svg xml:space="preserve" width="1000" height="1000" data-version="2" data-id="lg_eWLRW2MTpnb7Ab19ZX" viewBox="0 0 89 89" x="250" y="250"><rect width="100%" height="100%" fill="transparent"></rect><circle r="50" fill="none" stroke="#fff9ef" stroke-width="8" paint-order="stroke" transform="translate(44.5 44.5)scale(.8093)"></circle><path fill="#fff9ef" d="M43.81 61.51q-4.06 0-7.31-1.9t-5.14-5.17q-1.9-3.28-1.9-7.39 0-4.11 1.74-7.36t4.76-5.14q3.01-1.9 6.81-1.9 3.07 0 5.67 1.27 2.6 1.28 4.37 3.46V23.34q0-1.2.75-1.92.75-.73 1.9-.73 1.19 0 1.92.73.73.72.73 1.92v23.71q0 4.11-1.9 7.39-1.9 3.27-5.12 5.17t-7.28 1.9m0-4.68q2.65 0 4.73-1.28 2.08-1.27 3.28-3.51 1.19-2.23 1.19-4.99 0-2.81-1.19-4.99-1.2-2.18-3.28-3.46-2.08-1.27-4.73-1.27-2.6 0-4.71 1.27-2.1 1.28-3.32 3.46-1.23 2.18-1.23 4.99 0 2.76 1.23 4.99 1.22 2.24 3.32 3.51 2.11 1.28 4.71 1.28" paint-order="stroke"></path><rect width="28.65" height="40.82" x="-14.32" y="-20.41" fill="none" rx="0" ry="0" transform="translate(44.29 41.6)"></rect></svg></svg>